<?xml version="1.0" encoding="UTF-8" standalone="yes"?>
<svg xmlns="http://www.w3.org/2000/svg" xmlns:xlink="http://www.w3.org/1999/xlink" viewBox="0 0 24 24" version="1.1" width="24" height="24" fill="#000000">
  <g id="surface1">
    <path style=" " d="M 5 0 C 2.199219 0 0 2.199219 0 5 C 0 9.300781 5 17 5 17 C 5 17 10 9.199219 10 5 C 10 2.199219 7.800781 0 5 0 Z M 5 3 C 6.101563 3 7 3.898438 7 5 C 7 6.101563 6.101563 7 5 7 C 3.898438 7 3 6.101563 3 5 C 3 3.898438 3.898438 3 5 3 Z M 19 7 C 16.199219 7 14 9.199219 14 12 C 14 16.300781 19 24 19 24 C 19 24 24 16.199219 24 12 C 24 9.199219 21.800781 7 19 7 Z M 19 10 C 20.101563 10 21 10.898438 21 12 C 21 13.101563 20.101563 14 19 14 C 17.898438 14 17 13.101563 17 12 C 17 10.898438 17.898438 10 19 10 Z "/>
  </g>
</svg>
