<svg xmlns="http://www.w3.org/2000/svg" viewBox="0 0 153.97 137.72"><defs><style>.cls-1{fill:#ff9203;}.cls-2{fill:#000;}.cls-3{fill:#000;}</style></defs><title>Ресурс 8</title><g id="Слой_2" data-name="Слой 2"><g id="Слой_1-2" data-name="Слой 1"><polygon class="cls-1" points="43.36 106.68 21.52 68.86 50.52 18.64 108.51 18.64 132.45 60.11 153.97 60.11 119.27 0 39.76 0 0 68.86 32.59 125.32 43.36 106.68"/><polygon class="cls-2" points="132.45 77.61 108.51 119.08 56.4 119.08 45.64 137.72 119.27 137.72 153.97 77.61 132.45 77.61"/><path class="cls-3" d="M49.52,94h6.31A3.16,3.16,0,0,0,59,90.88V62.51a3.16,3.16,0,0,0-3.15-3.16H49.52ZM112,71.59a6.37,6.37,0,0,0,.53-2.53v-3.4a6.33,6.33,0,0,0-6.3-6.31H88.93l2.9-14.65a3.21,3.21,0,0,0-.25-2.09,15.19,15.19,0,0,0-2.78-3.84l-1.45-1.48-20.2,20.2A6.33,6.33,0,0,0,65.29,62V86.69A7.38,7.38,0,0,0,72.66,94H98.23A6.35,6.35,0,0,0,103.65,91Z"/></g></g></svg>
