<svg xmlns="http://www.w3.org/2000/svg" viewBox="0 0 153.97 137.72"><defs><style>.cls-1{fill:#ff9203;}.cls-2{fill:#000;}.cls-3{fill:#000;}</style></defs><title>Ресурс 9</title><g id="Слой_2" data-name="Слой 2"><g id="Слой_1-2" data-name="Слой 1"><polygon class="cls-1" points="43.36 106.68 21.52 68.86 50.52 18.64 108.51 18.64 132.45 60.11 153.97 60.11 119.27 0 39.76 0 0 68.86 32.59 125.32 43.36 106.68"/><polygon class="cls-2" points="132.45 77.61 108.51 119.08 56.4 119.08 45.64 137.72 119.27 137.72 153.97 77.61 132.45 77.61"/><path class="cls-3" d="M67.65,49.4,47.41,62.89v29.7H61.53V70H72.82V92.59H86.94V62.24Z"/><path class="cls-3" d="M72.82,41.77V46l5.65,3.75,4.88,3.28h3.59v2.4l5.64,3.78v5.11h5.65V70H92.58v5.64h5.65V81.3H92.58V92.59h16.94V41.77ZM98.23,58.71H92.58V53.07h5.65Z"/></g></g></svg>
