<svg xmlns="http://www.w3.org/2000/svg" viewBox="0 0 153.97 137.72"><defs><style>.cls-1{fill:#ff9203;}.cls-2{fill:#fffdfa;}.cls-3{fill:#f4f1ed;}</style></defs><title>Ресурс 5</title><g id="Слой_2" data-name="Слой 2"><g id="Слой_1-2" data-name="Слой 1"><polygon class="cls-1" points="43.36 106.68 21.52 68.86 50.52 18.64 108.51 18.64 132.45 60.11 153.97 60.11 119.27 0 39.76 0 0 68.86 32.59 125.32 43.36 106.68"/><polygon class="cls-2" points="132.45 77.61 108.51 119.08 56.4 119.08 45.64 137.72 119.27 137.72 153.97 77.61 132.45 77.61"/><path class="cls-3" d="M101.85,86.87,80.76,65.78a14.85,14.85,0,0,0-3.48-16,15.31,15.31,0,0,0-17.15-3l10,10-7,6.95-10.2-10A15.16,15.16,0,0,0,72,74.36l21.1,21.09a2.23,2.23,0,0,0,3.24,0l5.33-5.33A2.09,2.09,0,0,0,101.85,86.87Z"/></g></g></svg>