<svg xmlns="http://www.w3.org/2000/svg" viewBox="0 0 153.97 137.72"><defs><style>.cls-1{fill:#ff9203;}.cls-2{fill:#fffdfa;}.cls-3{fill:#f9f9f9;}</style></defs><title>Ресурс 6</title><g id="Слой_2" data-name="Слой 2"><g id="Слой_1-2" data-name="Слой 1"><polygon class="cls-1" points="43.36 106.68 21.52 68.86 50.52 18.64 108.51 18.64 132.45 60.11 153.97 60.11 119.27 0 39.76 0 0 68.86 32.59 125.32 43.36 106.68"/><polygon class="cls-2" points="132.45 77.61 108.51 119.08 56.4 119.08 45.64 137.72 119.27 137.72 153.97 77.61 132.45 77.61"/><path class="cls-3" d="M104.19,42a5.18,5.18,0,0,0-4.91-3.49h-38A5.19,5.19,0,0,0,56.37,42l-7.19,20.7V90.31a3.46,3.46,0,0,0,3.45,3.45h3.46a3.46,3.46,0,0,0,3.45-3.45V86.85H101v3.46a3.46,3.46,0,0,0,3.46,3.45h3.45a3.47,3.47,0,0,0,3.46-3.45V62.66ZM61.27,76.48a5.18,5.18,0,1,1,5.19-5.18A5.17,5.17,0,0,1,61.27,76.48Zm38,0a5.18,5.18,0,1,1,5.19-5.18A5.17,5.17,0,0,1,99.28,76.48ZM56.09,59.21l5.18-15.55h38l5.19,15.55Z"/></g></g></svg>