<svg xmlns="http://www.w3.org/2000/svg" viewBox="0 0 153.97 137.72"><defs><style>.cls-1{fill:#ff9203;}.cls-2{fill:#fffdfa;}.cls-3{fill:#f4f1ed;}</style></defs><title>Ресурс 2</title><g id="Слой_2" data-name="Слой 2"><g id="Слой_1-2" data-name="Слой 1"><polygon class="cls-1" points="43.36 106.68 21.52 68.86 50.52 18.64 108.51 18.64 132.45 60.11 153.97 60.11 119.27 0 39.76 0 0 68.86 32.59 125.32 43.36 106.68"/><polygon class="cls-2" points="132.45 77.61 108.51 119.08 56.4 119.08 45.64 137.72 119.27 137.72 153.97 77.61 132.45 77.61"/><path class="cls-3" d="M109.79,89.74,82,61.91a19.63,19.63,0,0,0-4.59-21.1,20.22,20.22,0,0,0-22.63-4L67.9,50l-9.18,9.17L45.27,46A20,20,0,0,0,70.34,73.23l27.83,27.83a3,3,0,0,0,4.29,0l7-7A2.75,2.75,0,0,0,109.79,89.74Z"/></g></g></svg>